<?xml version="1.0" encoding="UTF-8"?>
<svg id="Layer_1" xmlns="http://www.w3.org/2000/svg" version="1.1" xmlns:xlink="http://www.w3.org/1999/xlink" viewBox="0 0 592.5 594.5">
  <!-- Generator: Adobe Illustrator 29.7.1, SVG Export Plug-In . SVG Version: 2.1.1 Build 8)  -->
  <defs>
    <style>
      .st0 {
        fill: none;
      }

      .st1 {
        fill: url(#linear-gradient);
      }

      .st2 {
        clip-path: url(#clippath);
      }
    </style>
    <clipPath id="clippath">
      <path class="st0" d="M10.3,583.6h69.6c1.8-14.2,4.3-28,7.5-41.5,27.3-114.8,99.8-201.5,99.8-201.5,0,0-141.4,93.7-177,164.2v78.9ZM258.1,194.7h68.7l44.2,66c1.4,2.2-43.5-38.4-43.5-38.4l-45.9-8.5c-4-.7-7.3-2.1-10.6-4.5-9.8-7-12.9-14.7-12.9-14.7ZM427.8,406.2c-44.9-2.5-88,17.9-88,17.9,25.5,39.5,79.3,52.6,79.3,52.6,24.5-33.7,8.8-70.5,8.8-70.5ZM434.3,193.8l-65.5-113.5h150.7v435.6h-139.7c-97.7-77.6-105.2-168.5-105.2-168.5l-91.2-80.9c-1.9-1.7,118.9,68.7,118.9,68.7-.3,32.8,26.7,59.7,26.7,59.7,61.4,14,110.7-19.1,110.7-19.1,8.8,37.3,36.8,8.1,39.7-42-7.4,12.8-33.9,24.5-33.9,24.5-26.1-15.1-35.7-37.9-35.7-37.9,45.3,17.4,73.5,0,73.5,0l-77.4-113.2h25.8c7.3,4.2,8.9,8.9,8.9,8.9,2.2-8.3-6.3-22.4-6.3-22.4ZM10.3,287.9v71.7c66.3-66.3,141.3-95.4,141.3-95.4-37.6,0-96.1,9.9-141.3,23.7ZM10.3,95.4v81c109.2,0,189.5,20.4,189.5,20.4-40-49-127.9-83.2-189.5-101.4ZM182.2,583.6h398.9V12.8H97.2c62.7,25.3,123,48.5,187.7,117.6-15.9-32.9-39.2-67.2-61.7-96.3h336.7v528.2H245.2c-25.3-43.8-37-132.4-30.2-188.4-22,62.2-33.1,143.1-32.8,209.7Z"/>
    </clipPath>
    <linearGradient id="linear-gradient" x1="92.8" y1="95.2" x2="516.5" y2="519" gradientUnits="userSpaceOnUse">
      <stop offset="0" stop-color="#54a1ff"/>
      <stop offset="1" stop-color="#bd7bff"/>
    </linearGradient>
  </defs>
  <rect class="st0" x="-739.6" y="-535.5" width="2000" height="2000"/>
  <g class="st2">
    <rect class="st1" x="10.3" y="12.8" width="570.8" height="570.8"/>
  </g>
</svg>